# xmcd
#
# Track frame offsets: 
#        150
#        16061
#        30853
#        48959
#        76178
#        92172
#        105567
#        121114
#        134487
#        148602
#        164432
#        177806
#        194019
#
# Disc length: 2780 seconds
#
# Revision: 0
# Processed by: cddbd v1.5.2PL0 Copyright (c) Steve Scherf et al.
# Submitted via: ExactAudioCopy v0.99pb4
#
DISCID=9e0ada0d
DTITLE=Trio Xapuri - Fogão de Lenha
DYEAR=1900
DGENRE=Country
TTITLE0=Fogão de Lenha
TTITLE1=Dama de Vermelho
TTITLE2=Cabocla Tereza
TTITLE3=Evidências
TTITLE4=Cuitelinho
TTITLE5=Fio de Cabelo
TTITLE6=O Menino da Porteira
TTITLE7=Mulher Chorona
TTITLE8=Saudade da Minha Terra
TTITLE9=Índia
TTITLE10=Chico Mineiro
TTITLE11=Boate Azul
TTITLE12=Dançando com Dona Maria
EXTD=
EXTT0=
EXTT1=
EXTT2=
EXTT3=
EXTT4=
EXTT5=
EXTT6=
EXTT7=
EXTT8=
EXTT9=
EXTT10=
EXTT11=
EXTT12=
PLAYORDER=
